<?xml version="1.0" encoding="UTF-8" standalone="no"?>
<svg xmlns="http://www.w3.org/2000/svg" xmlns:xlink="http://www.w3.org/1999/xlink" version="1.1" height="512" width="512" viewBox="0 0 512 512">
	<style type="text/css">
		.class_path_road {fill: none; stroke: #000000; stroke-width: 2;}
		.class_text_busstop {font-size: 16; line-height: 1;}
	</style>
	<defs>
		<circle id="cy" cx="0" cy="0" r="4" style="fill: #FFFF00; stroke: #000000; stroke-width: 2;"/>
	</defs>
	<g>
		<path class="class_path_road" d="M 404,-4 L 396,4 L 392,8 L 344,72 L 336,96 L 332,140 L 332,152 L 344,192 L 348,224 L 352,240 L 372,292 L 384,312 L 396,320"/>
		<path class="class_path_road" d="M 396,320 L 376,356 L 368,364 L 352,404 L 336,404 L 340,416 L 340,484 L 340,488 L 348,508 L 348,516"/>
		<path class="class_path_road" d="M 396,320 L 444,316 L 472,316 L 508,320 L 516,324"/>
	</g>
	<g>
		<use xlink:href="#cy" x="392" y="8"/>
		<use xlink:href="#cy" x="344" y="72"/>
		<use xlink:href="#cy" x="344" y="192"/>
		<use xlink:href="#cy" x="396" y="320"/>
		<use xlink:href="#cy" x="456" y="316"/>
		<use xlink:href="#cy" x="336" y="404"/>
		<use xlink:href="#cy" x="340" y="484"/>
	</g>
	<g>
		<text class="class_text_busstop" x="400" y="16">？火葬場入口</text>
		<text class="class_text_busstop" x="352" y="80">電業社前</text>
		<text class="class_text_busstop" x="352" y="200">大山園前</text>
		<text class="class_text_busstop" x="272" y="316">三角橋</text>
		<text class="class_text_busstop" x="272" y="332">代々幡町三角橋</text>
		<text class="class_text_busstop" x="400" y="308">？農大裏門</text>
		<text class="class_text_busstop" x="344" y="420">？火の見下</text>
		<text class="class_text_busstop" x="348" y="492">殖民學校前</text>
	</g>
</svg>
